<svg xmlns="http://www.w3.org/2000/svg" width="32" height="32" viewBox="0 0 32 32" fill="none">
  <rect width="32" height="32" rx="8" fill="url(#gradient)"/>
  <path d="M16 8C14.5 8 13 9.5 13 11C13 12.5 14 14 15 15C14 16 12 17 10 18C10 20 11.5 22 14 23C15.5 24 18 24 20 23C22 22 24 20 24 17C24 14 22 11 19 9.5C18 9 17 8.5 16 8Z" fill="white" fill-opacity="0.9"/>
  <path d="M12 14C11 15 10 16.5 10 18" stroke="white" stroke-width="1.5" stroke-linecap="round" fill-opacity="0.7"/>
  <defs>
    <linearGradient id="gradient" x1="0" y1="0" x2="32" y2="32" gradientUnits="userSpaceOnUse">
      <stop stop-color="#7fa96e"/>
      <stop offset="1" stop-color="#5F8D4E"/>
    </linearGradient>
  </defs>
</svg>
